<?xml version="1.0" standalone="no"?>
<!DOCTYPE svg PUBLIC "-//W3C//DTD SVG 20010904//EN"
 "http://www.w3.org/TR/2001/REC-SVG-20010904/DTD/svg10.dtd">
<svg version="1.0" xmlns="http://www.w3.org/2000/svg"
 width="64.000000pt" height="64.000000pt" viewBox="0 0 64.000000 64.000000"
 preserveAspectRatio="xMidYMid meet">

<g transform="translate(0.000000,64.000000) scale(0.100000,-0.100000)"
fill="#FF0000" stroke="none">
<path d="M155 631 c-66 -16 -111 -61 -135 -135 -17 -52 -8 -160 18 -218 l21
-48 42 15 c76 27 155 13 223 -39 19 -14 37 -26 41 -26 3 0 17 24 30 53 89 189
-63 440 -240 398z" fill="#FF0000"/>
<path d="M472 603 c58 -60 82 -124 83 -218 0 -103 -23 -163 -88 -232 l-49 -52
31 -15 c36 -19 82 -21 99 -4 7 7 12 24 12 39 0 32 18 48 31 28 11 -16 7 -105
-5 -131 -7 -15 -3 -18 23 -18 l31 0 0 320 0 320 -102 0 -102 0 36 -37z"/>
<path d="M104 181 c25 -28 79 -51 117 -51 32 0 32 0 13 21 -28 31 -68 49 -110
49 -36 0 -37 -1 -20 -19z" fill="#FF0000"/>
<path d="M0 56 l0 -56 187 0 188 0 -27 27 c-25 25 -32 26 -130 27 -103 1 -112
3 -210 54 -5 2 -8 -21 -8 -52z" fill="#FF0000"/>
</g>
</svg>
